<svg width="335" height="74" viewBox="0 0 335 74" fill="none" xmlns="http://www.w3.org/2000/svg">
  <rect width="335" height="74" fill="#1a1a1a" rx="8"/>
  <defs>
    <pattern id="g" x="5.5" y="5.5" width="9" height="9" patternUnits="userSpaceOnUse">
      <circle cx="4.5" cy="4.5" r="2.5" fill="#2a2a2a"/>
    </pattern>
  </defs>
  <rect x="0" y="0" width="335" height="74" fill="url(#g)"/>

  <!-- / cols 0-6 (perfect 45 degree diagonal) -->
  <circle cx="64" cy="10" r="3.2" fill="white"/>
  <circle cx="55" cy="19" r="3.2" fill="white"/>
  <circle cx="46" cy="28" r="3.2" fill="white"/>
  <circle cx="37" cy="37" r="3.2" fill="white"/>
  <circle cx="28" cy="46" r="3.2" fill="white"/>
  <circle cx="19" cy="55" r="3.2" fill="white"/>
  <circle cx="10" cy="64" r="3.2" fill="white"/>

  <!-- v cols 8-12 -->
  <circle cx="82"  cy="28" r="3.2" fill="white"/>
  <circle cx="118" cy="28" r="3.2" fill="white"/>
  <circle cx="82"  cy="37" r="3.2" fill="white"/>
  <circle cx="118" cy="37" r="3.2" fill="white"/>
  <circle cx="91"  cy="46" r="3.2" fill="white"/>
  <circle cx="109" cy="46" r="3.2" fill="white"/>
  <circle cx="91"  cy="55" r="3.2" fill="white"/>
  <circle cx="109" cy="55" r="3.2" fill="white"/>
  <circle cx="100" cy="64" r="3.2" fill="white"/>

  <!-- o cols 14-18 -->
  <circle cx="145" cy="28" r="3.2" fill="white"/>
  <circle cx="154" cy="28" r="3.2" fill="white"/>
  <circle cx="163" cy="28" r="3.2" fill="white"/>
  <circle cx="136" cy="37" r="3.2" fill="white"/>
  <circle cx="172" cy="37" r="3.2" fill="white"/>
  <circle cx="136" cy="46" r="3.2" fill="white"/>
  <circle cx="172" cy="46" r="3.2" fill="white"/>
  <circle cx="136" cy="55" r="3.2" fill="white"/>
  <circle cx="172" cy="55" r="3.2" fill="white"/>
  <circle cx="145" cy="64" r="3.2" fill="white"/>
  <circle cx="154" cy="64" r="3.2" fill="white"/>
  <circle cx="163" cy="64" r="3.2" fill="white"/>

  <!-- i col 20 -->
  <circle cx="190" cy="10" r="3.2" fill="white"/>
  <circle cx="190" cy="28" r="3.2" fill="white"/>
  <circle cx="190" cy="37" r="3.2" fill="white"/>
  <circle cx="190" cy="46" r="3.2" fill="white"/>
  <circle cx="190" cy="55" r="3.2" fill="white"/>
  <circle cx="190" cy="64" r="3.2" fill="white"/>

  <!-- d cols 22-26 -->
  <circle cx="244" cy="10" r="3.2" fill="white"/>
  <circle cx="244" cy="19" r="3.2" fill="white"/>
  <circle cx="217" cy="28" r="3.2" fill="white"/>
  <circle cx="226" cy="28" r="3.2" fill="white"/>
  <circle cx="235" cy="28" r="3.2" fill="white"/>
  <circle cx="244" cy="28" r="3.2" fill="white"/>
  <circle cx="208" cy="37" r="3.2" fill="white"/>
  <circle cx="244" cy="37" r="3.2" fill="white"/>
  <circle cx="208" cy="46" r="3.2" fill="white"/>
  <circle cx="244" cy="46" r="3.2" fill="white"/>
  <circle cx="208" cy="55" r="3.2" fill="white"/>
  <circle cx="244" cy="55" r="3.2" fill="white"/>
  <circle cx="217" cy="64" r="3.2" fill="white"/>
  <circle cx="226" cy="64" r="3.2" fill="white"/>
  <circle cx="235" cy="64" r="3.2" fill="white"/>
  <circle cx="244" cy="64" r="3.2" fill="white"/>

  <!-- | cursor col 34 -->
  <circle cx="316" cy="10" r="3.2" fill="white"/>
  <circle cx="316" cy="19" r="3.2" fill="white"/>
  <circle cx="316" cy="28" r="3.2" fill="white"/>
  <circle cx="316" cy="37" r="3.2" fill="white"/>
  <circle cx="316" cy="46" r="3.2" fill="white"/>
  <circle cx="316" cy="55" r="3.2" fill="white"/>
  <circle cx="316" cy="64" r="3.2" fill="white"/>
</svg>
