<svg width="16" height="16" viewBox="0 0 16 16" fill="none" stroke="currentColor" stroke-width="1.5" stroke-linecap="round" stroke-linejoin="round" xmlns="http://www.w3.org/2000/svg">
  <path d="M8 14V2.5"/>
  <path d="M8 2.5C6 2.5 4.5 3 3.5 4.5C2 5 1.5 6.5 2 7.5C1 8 1 9 2 9.5C1.5 10.5 2 12 3.5 12.5C4.5 13.5 6 14 7 14"/>
  <path d="M8 2.5C10 2.5 11.5 3 12.5 4.5C14 5 14.5 6.5 14 7.5C15 8 15 9 14 9.5C14.5 10.5 14 12 12.5 12.5C11.5 13.5 10 14 9 14"/>
  <path d="M3 6Q4 6.5 5 6"/>
  <path d="M3 10Q4 9.5 5 10"/>
  <path d="M13 6Q12 6.5 11 6"/>
  <path d="M13 10Q12 9.5 11 10"/>
</svg>
